<?xml version="1.0" encoding="UTF-8"?>
<svg id="Layer_1" xmlns="http://www.w3.org/2000/svg" xmlns:xlink="http://www.w3.org/1999/xlink" version="1.1" viewBox="0 0 238.11 123.02">
  <!-- Generator: Adobe Illustrator 30.6.0, SVG Export Plug-In . SVG Version: 2.1.4 Build 109)  -->
  <defs>
    <style>
      .st0 {
        fill: none;
      }

      .st1 {
        fill: #213468;
      }

      .st2 {
        fill: #1c75bc;
      }

      .st3 {
        fill: #27aae1;
      }

      .st4 {
        fill: #636567;
      }

      .st5 {
        clip-path: url(#clippath);
      }
    </style>
    <clipPath id="clippath">
      <rect class="st0" width="238.11" height="123.02"/>
    </clipPath>
  </defs>
  <g class="st5">
    <path class="st3" d="M190.94,39c-.77-.54-1.73-.91-2.85-1.11-1.14-.2-2.45-.31-3.89-.31h-4.81v16.26c2.23.5,4.7.56,7.29.01,1.2-.25,2.32-.72,3.32-1.4.99-.67,1.82-1.6,2.45-2.78.63-1.18.95-2.72.95-4.58,0-1.57-.22-2.86-.65-3.84-.43-.96-1.03-1.72-1.8-2.26"/>
    <path class="st3" d="M201.15,22.09v-.02h-46.27v63.24h46.27c8.44,0,15.28-6.84,15.28-15.28V22.09h-15.28ZM197.42,50.92c-1.09,1.56-2.44,2.8-4.02,3.67-1.58.88-3.27,1.47-5.03,1.77-1.75.3-3.32.45-4.68.45-.87,0-1.66,0-2.37-.03-.63-.02-1.28-.06-1.94-.12v2.82c0,2.47.05,4.93.14,7.3.09,2.4.2,4.76.31,7.08v.28s-.27-.02-.27-.02c-1.69-.15-3.79-.15-5.47,0l-.28.02v-.28c.12-2.33.23-4.69.32-7.08.09-2.4.14-4.85.14-7.3v-9.67c0-2.45-.05-4.9-.14-7.27-.1-2.38-.2-4.81-.31-7.28v-.28s.27.03.27.03c.9.07,1.8.14,2.72.2.93.05,1.84.08,2.71.08.46,0,1-.02,1.62-.06.64-.04,1.29-.06,1.95-.08.65-.02,1.28-.05,1.88-.09.62-.04,1.12-.06,1.54-.06.56,0,1.24.02,2.09.06.83.04,1.73.15,2.65.34.93.19,1.86.48,2.77.86.93.39,1.78.95,2.52,1.68.75.73,1.37,1.66,1.83,2.75.46,1.1.7,2.46.7,4.06,0,2.51-.56,4.59-1.65,6.16"/>
    <path class="st2" d="M88.52,85.31h61.54V22.07h-61.54v63.24ZM130.42,73.82l.1.34-.35-.02c-1.66-.07-3.35-.11-5.02-.11h-10.21c-1.69,0-3.41.04-5.1.11h-.27s.01-.26.01-.26c.11-2.4.21-4.79.31-7.17.09-2.38.14-4.82.14-7.27v-9.67c0-2.45-.05-4.91-.14-7.3-.1-2.4-.2-4.8-.31-7.2v-.27s.26.01.26.01c1.68.08,3.36.14,5.03.2,3.38.11,6.67.11,10.02,0,1.65-.06,3.32-.12,5-.2h.32s-.06.3-.06.3c-.11.55-.17,1.1-.17,1.64s.06,1.09.17,1.64l.06.32-.32-.02c-1.2-.08-2.3-.15-3.29-.23-.99-.07-2.04-.15-3.15-.22-1.11-.08-2.33-.14-3.62-.2-1.25-.05-2.76-.08-4.48-.09-.04,1.12-.08,2.18-.13,3.2-.05,1.1-.08,2.35-.08,3.7,0,1.46,0,2.89.03,4.27.01,1.24.02,2.21.03,2.9,1.52,0,2.93-.02,4.19-.06,1.3-.04,2.51-.08,3.59-.14,1.09-.06,2.09-.11,3.01-.17.91-.06,1.78-.12,2.61-.2l.33-.03-.07.32c-.11.55-.17,1.12-.17,1.7,0,.54.06,1.09.17,1.64l.07.33-.34-.04c-.96-.11-2.1-.21-3.39-.28-1.28-.07-2.58-.12-3.87-.14h-.17c-1.23-.02-2.4-.04-3.49-.06-1.01-.02-1.84-.02-2.48-.03,0,.27-.01.56-.02.86-.02.39-.03.89-.03,1.48v5.57c0,2.14,0,3.9.03,5.28.01,1.23.04,2.21.07,2.91h3.7c1.42,0,2.83-.03,4.18-.09,1.41-.06,2.68-.13,3.87-.22,1.21-.09,2.27-.23,3.15-.42l.4-.08-.11.4c-.07.24-.11.52-.13.82-.02.31-.03.6-.03.86,0,.57.05,1.04.16,1.39"/>
    <path class="st1" d="M37.47,22.07c-8.44,0-15.28,6.84-15.28,15.28v47.94h15.28v.02h46.27V22.07h-46.27ZM67.78,74.14c-.54-.07-1.1-.11-1.65-.11h-3.23c-.5,0-1,.04-1.51.11l-.13.02-.09-.1c-1.36-1.54-2.86-3.33-4.48-5.29-1.63-1.99-3.22-3.91-4.78-5.76-1.56-1.85-2.97-3.52-4.22-5-1.27-1.5-2.18-2.52-2.77-3.11-.44-.44-.5-.38-.5-.38-.02,0-.03.03-.03.09v4.89c0,2.45.04,4.91.14,7.3.09,2.4.2,4.76.31,7.08v.28s-.27-.03-.27-.03c-1.69-.15-3.78-.15-5.47,0l-.28.03v-.28c.13-2.32.23-4.68.32-7.08.09-2.38.14-4.83.14-7.3v-9.67c0-2.47-.05-4.92-.14-7.27-.1-2.38-.2-4.81-.31-7.28v-.3s.29.05.29.05c.48.08.95.14,1.4.2.89.11,1.74.11,2.64,0,.45-.06.91-.12,1.4-.2l.3-.05v.3c-.13,2.47-.23,4.9-.32,7.28-.09,2.35-.14,7.84-.14,7.89,0,.2.04.2.09.2.01,0,.16-.03.62-.44,1.31-1.12,2.69-2.4,4.13-3.82.42-.42,1.48-1.43,2.81-2.7,3.14-3,7.88-7.54,8.79-8.59l.09-.11.14.03c.38.07,1.69.19,2.06.19.12,0,.34,0,.6,0,.67.02,1.79.03,2.1,0,.45-.06.89-.12,1.34-.19l.88-.15-.68.58c-1.28,1.1-2.77,2.44-4.43,3.99-1.64,1.52-3.31,3.11-4.98,4.72-1.63,1.57-3.24,3.17-4.77,4.75-1.43,1.47-2.66,2.78-3.64,3.9,3.1,3.49,6.15,6.94,9.05,10.27,3.12,3.58,6.29,7.16,9.42,10.66l.45.5-.66-.09Z"/>
    <path class="st4" d="M89.82,101.29c-.21-.02-.43-.03-.67-.03s-.46,0-.67.03h-.11s.08-1.85.08-1.85c.02-.59.04-1.18.04-1.79v-2.38c0-.61-.01-1.2-.04-1.79l-.08-1.9.78.06c.22.01.45.02.66.02.11,0,.24,0,.4-.01,0,0,.79-.03.94-.04.15-.01.27-.02.38-.02.14,0,.31,0,.51.02.21,0,.43.04.66.09.23.05.46.12.69.21.23.1.44.24.63.42.19.19.35.42.46.69.11.27.17.62.17,1.01,0,.63-.14,1.15-.41,1.54-.27.38-.61.69-1,.92-.39.22-.81.36-1.25.44-.42.07-.81.11-1.16.11-.21,0-.41,0-.58,0-.14,0-.29-.01-.44-.02v.65c0,.61,0,1.2.03,1.79.02.59.08,1.86.08,1.86h-.11ZM89.82,96.24c.27.06.57.09.88.09.28,0,.57-.03.86-.09.29-.06.56-.18.8-.34.24-.16.44-.39.59-.67.15-.28.23-.65.23-1.11,0-.38-.05-.69-.16-.93-.1-.23-.25-.41-.43-.54-.18-.13-.41-.22-.69-.27-.27-.05-.59-.07-.95-.07h-1.14v3.93Z"/>
    <path class="st4" d="M105.2,101.29c-.14-.02-.27-.03-.4-.03h-.81c-.14,0-.26,0-.39.03-.23-.24-.44-.53-.72-.91-.28-.39-.59-.8-.93-1.24-.34-.44-.69-.88-1.04-1.32-.35-.43-.68-.8-.97-1.11l-.35.02v.92c0,.61,0,1.2.03,1.79.02.59.08,1.86.08,1.86h-.11c-.21-.03-.43-.04-.67-.04s-.46,0-.67.03h-.11s.06-1.26.08-1.85c.02-.59.04-1.19.04-1.79v-2.38c0-.61-.01-1.2-.04-1.79-.02-.58-.08-1.9-.08-1.9l.9.06c.25.01.52.02.78.02s.53,0,.78-.04c.26-.02.53-.03.8-.03.38,0,.76.04,1.12.11.36.07.68.2.95.38.27.18.49.42.65.71.16.29.24.66.24,1.08,0,.46-.11.86-.31,1.19-.2.32-.45.6-.75.82-.3.21-.61.38-.95.49-.26.09-.51.16-.74.21l.36.45c.19.25.41.52.65.82,0,0,1.25,1.58,1.49,1.88.24.3.47.57.68.82.21.25.38.43.51.56l.21.21-.29-.04ZM99.58,95.98c.1.02.21.03.32.04.15.01.32.01.5.01.27,0,.56-.03.87-.1.3-.06.57-.17.82-.33.24-.15.45-.36.61-.62.16-.25.24-.58.24-.97,0-.34-.06-.63-.19-.84-.13-.22-.29-.39-.48-.52-.2-.13-.42-.22-.66-.27-.24-.05-.47-.07-.71-.07-.32,0-.59,0-.79.02-.17.01-.32.02-.45.04l-.05,1.42c-.02.5-.03.99-.03,1.49v.71Z"/>
    <path class="st4" d="M110.21,101.3h-.11c-.2-.03-.43-.04-.67-.04s-.46,0-.67.03h-.11s0-.1,0-.1c.02-.44.04-.88.06-1.33l.02-.42c.03-.61.04-1.21.04-1.79v-2.38c0-.58-.01-1.18-.04-1.79l-.02-.62c-.02-.38-.03-.77-.05-1.17v-.12s.12.02.12.02c.09.02.17.03.25.04h.1c.21.04.41.04.64.01h.09c.08-.02.16-.03.25-.05l.12-.02v.12c-.03.61-.06,1.21-.08,1.79-.02.56-.03,1.16-.03,1.79v2.38c0,.63.01,1.22.03,1.79.02.59.05,1.17.08,1.74v.11Z"/>
    <path class="st4" d="M122.85,101.47h-.34l-.03-.03c-1.07-1.23-2.2-2.5-3.39-3.76-1.14-1.23-2.29-2.45-3.43-3.66,0,.22-.01.49-.02.8,0,.43-.01,1.03-.01,1.77,0,.19,0,.43,0,.71v.92c.02.31.02.62.03.93,0,.17,0,.33.02.49l.04,1.13c.01.26.02.37.03.41l.02.13-.13-.02c-.29-.04-.68-.04-.97,0l-.14.02.03-.13c.02-.08.04-.24.06-.5.02-.27.04-.57.06-.89.02-.34.04-.72.06-1.13.02-.4.04-.81.05-1.21.01-.41.03-.8.04-1.19,0-.38.01-.73.01-1.03,0-.88,0-1.65,0-2.28,0-.68-.02-1.13-.03-1.42v-.1s.36,0,.36,0l1.83,1.99c.64.69,1.27,1.38,1.91,2.06l1.8,1.92c.52.55.95,1,1.31,1.37v-1.64c0-.96,0-1.91-.02-2.82-.01-.9-.04-1.77-.09-2.59v-.13s.12.03.12.03c.18.04.33.07.45.07.1,0,.25-.02.42-.07l.13-.04v.14c-.03.2-.05.5-.07.91-.02.41-.05.84-.07,1.3-.02.4-.04.78-.05,1.16v.19c-.03.46-.04.81-.04,1.06v.83c0,.31,0,.64,0,.98l.02,1.28c0,.25,0,.49,0,.71,0,.3,0,.56,0,.78v.55Z"/>
    <path class="st4" d="M129.31,101.3v-.11c.03-.57.06-1.15.08-1.74.02-.58.04-1.18.04-1.79v-2.38c0-.89-.01-1.81-.04-2.76-.21,0-.43,0-.65,0-.28,0-.54.01-.78.03-.26.01-.52.03-.76.05-.23.02-.44.04-.65.07l-.15.02.04-.14c.04-.17.07-.3.07-.42,0-.09-.02-.21-.07-.4l-.03-.13h.13c.41.02.81.03,1.2.04h.58c1.2.04,2.38.04,3.56.01h.58c.39-.03.79-.04,1.2-.05h.13s-.03.12-.03.12c-.04.17-.07.31-.07.42,0,.11.02.24.07.4l.04.14-.15-.02c-.21-.03-.43-.05-.65-.07-.24-.02-.5-.04-.76-.05-.25-.01-.5-.02-.79-.03-.23,0-.44,0-.65,0-.03.93-.04,1.86-.04,2.76v2.38c0,.59.01,1.19.04,1.79.02.59.05,1.17.08,1.74v.11s-.11,0-.11,0c-.2-.02-.42-.03-.67-.03s-.47,0-.67.03h-.11Z"/>
    <path class="st4" d="M148.09,101.47c-.82,0-1.58-.1-2.25-.3-.67-.2-1.25-.52-1.72-.94-.47-.42-.84-.95-1.09-1.58-.25-.63-.38-1.36-.38-2.18s.13-1.51.4-2.13c.26-.62.63-1.16,1.11-1.59.48-.43,1.07-.76,1.74-.99.68-.22,1.43-.34,2.25-.34.46,0,.89.03,1.27.08.37.05.69.12.98.2.27.08.53.17.75.27.21.09.4.18.57.26l.1.05-.05.09c-.07.12-.13.27-.19.48-.06.2-.1.38-.11.55v.09h-.31l-.03-.03c-.13-.16-.3-.32-.5-.48-.21-.16-.42-.3-.67-.43-.25-.12-.53-.22-.82-.3-.31-.08-.63-.12-.97-.12-.55,0-1.08.09-1.56.26-.48.17-.9.43-1.25.79-.35.35-.63.8-.83,1.35-.2.54-.31,1.2-.31,1.95,0,.66.09,1.26.27,1.79.18.53.44.98.79,1.34.34.36.77.64,1.26.84.5.2,1.07.3,1.7.3.2,0,.4,0,.6-.03.22-.02.41-.05.61-.08.18-.03.36-.08.54-.13.15-.05.26-.1.37-.16,0-.26.02-.52.02-.77,0-.28,0-.56,0-.84,0-.33,0-.65-.02-.96,0-.31-.03-.6-.04-.88v-.17s.12.03.12.03c.32.07.63.08.94.05.1,0,.19-.02.27-.05l.14-.05v.15c-.03.21-.04.55-.05,1-.01.47-.02,1.08-.02,1.8,0,.18,0,.37,0,.56,0,.2,0,.38,0,.56v.07l-.06.02c-.19.07-.43.15-.74.23-.29.08-.59.14-.93.2-.33.05-.66.1-.99.14-.32.04-.62.06-.9.06"/>
    <path class="st4" d="M162.96,101.29c-.13-.02-.27-.03-.4-.03h-.82c-.13,0-.26,0-.38.03-.23-.24-.44-.53-.73-.91-.28-.39-.59-.8-.93-1.24-.34-.44-.69-.88-1.04-1.32-.35-.43-.68-.8-.97-1.11l-.35.02v.92c0,.61,0,1.2.03,1.79.02.59.08,1.86.08,1.86h-.11c-.21-.03-.43-.04-.67-.04s-.46,0-.67.03h-.11s.08-1.85.08-1.85c.02-.59.04-1.19.04-1.79v-2.38c0-.61-.01-1.2-.04-1.79l-.08-1.9.9.06c.25.01.52.02.78.02s.52,0,.78-.04c.26-.02.53-.03.8-.03.38,0,.76.04,1.12.11.36.07.68.2.95.38.28.18.5.42.65.71.16.29.24.66.24,1.08,0,.46-.11.86-.31,1.19-.21.33-.46.6-.75.82-.3.21-.61.38-.94.49-.26.09-.51.16-.74.21.1.12,2.25,2.85,2.49,3.15.24.3.46.57.67.82.21.25.38.43.51.56l.21.21-.29-.04ZM157.34,95.98c.1.02.21.03.33.04.15.01.32.01.5.01.27,0,.56-.03.87-.1.3-.06.57-.17.82-.33.24-.15.45-.36.61-.62.16-.25.24-.58.24-.97,0-.34-.06-.63-.19-.84-.13-.22-.29-.39-.49-.52-.2-.13-.42-.22-.66-.27-.24-.05-.47-.07-.71-.07-.32,0-.59,0-.8.02-.17.01-.32.02-.45.04l-.05,1.42c-.02.5-.03.99-.03,1.49v.71Z"/>
    <path class="st4" d="M171.02,101.47c-.77,0-1.48-.11-2.12-.32-.65-.21-1.21-.54-1.68-.97-.46-.43-.83-.97-1.09-1.59-.26-.62-.39-1.34-.39-2.13s.13-1.51.39-2.13c.26-.63.62-1.16,1.09-1.59.46-.43,1.02-.76,1.67-.99.65-.22,1.36-.34,2.12-.34s1.49.11,2.13.34c.65.23,1.21.56,1.68.99.46.43.83.97,1.09,1.59.26.62.39,1.34.39,2.13s-.13,1.51-.39,2.13c-.26.62-.63,1.16-1.09,1.59-.47.43-1.04.76-1.68.97-.64.21-1.36.32-2.13.32M171.02,92.13c-.52,0-1.01.09-1.46.26-.45.17-.85.43-1.18.79-.33.35-.6.8-.79,1.35-.19.54-.29,1.2-.29,1.95s.1,1.41.29,1.95c.19.54.45,1,.79,1.35.33.35.73.61,1.18.78.45.17.94.26,1.46.26s1.03-.09,1.48-.26c.45-.17.85-.43,1.18-.78.33-.35.6-.81.79-1.35.19-.54.28-1.19.28-1.95s-.1-1.41-.28-1.95c-.19-.54-.45-.99-.79-1.35-.33-.35-.73-.62-1.18-.78-.45-.17-.95-.26-1.48-.26"/>
    <path class="st4" d="M184.13,101.47c-1.4,0-2.44-.32-3.08-.97-.64-.64-.97-1.67-.97-3.04,0-.44.01-.83.04-1.16.02-.33.04-.67.04-1.02,0-.84,0-1.5-.03-2.06-.02-.6-.04-1.1-.05-1.52v-.12s.12.02.12.02c.11.02.22.04.35.05.22.03.45.03.63,0,.09-.01.19-.03.29-.05l.13-.02v.13c-.03.2-.05.47-.07.79-.02.33-.04.7-.06,1.11-.02.42-.03.86-.04,1.34,0,.48-.01.97-.01,1.49,0,.31,0,.64.01.97,0,.34.04.65.1.97.05.31.14.61.26.89.12.27.29.52.51.73.22.2.5.37.83.49.34.12.76.18,1.26.18s.91-.07,1.24-.21c.33-.14.6-.33.82-.56.21-.23.38-.5.5-.8.12-.3.21-.63.26-.96.06-.35.09-.68.1-1.01,0-.34.01-.65.01-.94,0-1.23,0-2.27-.01-3.03,0-.67-.03-1.17-.07-1.45l-.02-.13.14.02c.1.02.19.04.29.05.18.03.37.04.65-.05l.14-.04v.14c-.04.32-.07.71-.1,1.15-.03.43-.05.9-.07,1.43-.01.43-.03.86-.04,1.31v.27c-.03.54-.04,1.06-.05,1.57,0,.62-.11,1.2-.29,1.69-.19.5-.45.93-.79,1.28-.34.35-.76.62-1.26.8-.5.18-1.07.27-1.7.27"/>
    <path class="st4" d="M192.91,99.45c.02-.59.04-1.18.04-1.79v-2.38c0-.61-.01-1.2-.04-1.79l-.08-1.9.78.06c.22.01.45.02.66.02.11,0,.24,0,.39-.01,0,0,.79-.03.94-.04.15-.01.27-.02.38-.02.14,0,.31,0,.52.02.21,0,.43.04.66.09.23.05.46.12.69.21s.44.24.63.42c.19.19.35.42.46.69.11.27.17.62.17,1.01,0,.63-.14,1.14-.41,1.54-.27.38-.61.69-1,.92-.39.22-.81.36-1.25.44-.42.07-.81.11-1.16.11-.21,0-.41,0-.58,0-.15,0-.29-.01-.44-.02v.65c0,.61,0,1.2.03,1.79.02.59.08,1.86.08,1.86h-.11c-.21-.03-.43-.04-.67-.04s-.46,0-.67.03h-.11s.08-1.85.08-1.85ZM194.28,96.24c.27.06.57.09.88.09.28,0,.57-.03.86-.09.29-.06.56-.18.8-.34.24-.16.44-.39.59-.67.15-.28.23-.65.23-1.11,0-.38-.05-.69-.16-.93-.1-.23-.25-.41-.43-.54-.18-.13-.41-.22-.69-.27-.27-.05-.59-.07-.95-.07h-1.14v3.93Z"/>
  </g>
</svg>